<?xml version="1.0" encoding="UTF-8"?>
<!DOCTYPE svg PUBLIC "-//W3C//DTD SVG 1.1//EN" "http://www.w3.org/Graphics/SVG/1.1/DTD/svg11.dtd">
<svg xmlns="http://www.w3.org/2000/svg" version="1.1" width="32px" height="32px" style="shape-rendering:geometricPrecision; text-rendering:geometricPrecision; image-rendering:optimizeQuality; fill-rule:evenodd; clip-rule:evenodd" xmlns:xlink="http://www.w3.org/1999/xlink">
<g><path style="opacity:0.22" fill="#696b06" d="M 17.5,1.5 C 16.209,1.26269 15.209,1.59603 14.5,2.5C 13.8333,2.5 13.1667,2.5 12.5,2.5C 13.8786,0.403086 15.5453,0.0697524 17.5,1.5 Z"/></g>
<g><path style="opacity:0.345" fill="#767107" d="M 12.5,2.5 C 11.7377,4.26242 10.4044,5.26242 8.5,5.5C 9.26231,3.73758 10.5956,2.73758 12.5,2.5 Z"/></g>
<g><path style="opacity:1" fill="#c7b901" d="M 17.5,1.5 C 19.3885,2.60398 21.0552,3.93731 22.5,5.5C 20.5,5.16667 18.5,4.83333 16.5,4.5C 15.8333,3.83333 15.1667,3.16667 14.5,2.5C 15.209,1.59603 16.209,1.26269 17.5,1.5 Z"/></g>
<g><path style="opacity:1" fill="#f1c400" d="M 12.5,2.5 C 13.1667,2.5 13.8333,2.5 14.5,2.5C 15.1667,3.16667 15.8333,3.83333 16.5,4.5C 14.847,4.6596 13.5137,5.32627 12.5,6.5C 12.1667,6.5 11.8333,6.5 11.5,6.5C 10.209,6.73731 9.20895,6.40397 8.5,5.5C 10.4044,5.26242 11.7377,4.26242 12.5,2.5 Z"/></g>
<g><path style="opacity:1" fill="#b02700" d="M 16.5,4.5 C 16.8333,5.5 17.5,6.16667 18.5,6.5C 17.8333,7.16667 17.1667,7.83333 16.5,8.5C 15.5326,7.19376 14.1993,6.52709 12.5,6.5C 13.5137,5.32627 14.847,4.6596 16.5,4.5 Z"/></g>
<g><path style="opacity:1" fill="#ca9f05" d="M 16.5,4.5 C 18.5,4.83333 20.5,5.16667 22.5,5.5C 24.0269,5.42702 25.0269,6.09368 25.5,7.5C 23.5,7.16667 21.5,6.83333 19.5,6.5C 19.1667,6.5 18.8333,6.5 18.5,6.5C 17.5,6.16667 16.8333,5.5 16.5,4.5 Z"/></g>
<g><path style="opacity:1" fill="#d79f02" d="M 8.5,5.5 C 9.20895,6.40397 10.209,6.73731 11.5,6.5C 11.1667,7.16667 10.8333,7.83333 10.5,8.5C 8.93819,8.73286 7.60486,9.39952 6.5,10.5C 6.41423,9.5041 6.74756,8.67076 7.5,8C 6.90558,7.53566 6.23891,7.36899 5.5,7.5C 5.97306,6.09368 6.97306,5.42702 8.5,5.5 Z"/></g>
<g><path style="opacity:1" fill="#b81300" d="M 11.5,6.5 C 11.8333,6.5 12.1667,6.5 12.5,6.5C 14.1993,6.52709 15.5326,7.19376 16.5,8.5C 16.5,8.83333 16.5,9.16667 16.5,9.5C 14.8333,9.5 13.1667,9.5 11.5,9.5C 10.8333,9.5 10.5,9.16667 10.5,8.5C 10.8333,7.83333 11.1667,7.16667 11.5,6.5 Z"/></g>
<g><path style="opacity:1" fill="#e09100" d="M 18.5,6.5 C 18.8333,6.5 19.1667,6.5 19.5,6.5C 20.6935,7.27187 21.6935,8.27187 22.5,9.5C 21.8333,9.5 21.5,9.83333 21.5,10.5C 20.8333,10.5 20.5,10.8333 20.5,11.5C 20.1667,11.5 19.8333,11.5 19.5,11.5C 19.1898,9.85637 18.1898,8.85637 16.5,8.5C 17.1667,7.83333 17.8333,7.16667 18.5,6.5 Z"/></g>
<g><path style="opacity:0.345" fill="#757107" d="M 5.5,7.5 C 4.73769,9.26242 3.40435,10.2624 1.5,10.5C 2.26231,8.73758 3.59565,7.73758 5.5,7.5 Z"/></g>
<g><path style="opacity:0.659" fill="#7b7409" d="M 25.5,7.5 C 27.2303,8.02561 28.5637,9.02561 29.5,10.5C 27.368,10.4456 26.0347,9.44563 25.5,7.5 Z"/></g>
<g><path style="opacity:1" fill="#ad1b00" d="M 16.5,8.5 C 18.1898,8.85637 19.1898,9.85637 19.5,11.5C 17.6203,11.2291 16.287,11.8958 15.5,13.5C 14.8333,13.5 14.5,13.1667 14.5,12.5C 15.1667,11.5 15.8333,10.5 16.5,9.5C 16.5,9.16667 16.5,8.83333 16.5,8.5 Z"/></g>
<g><path style="opacity:1" fill="#eec900" d="M 19.5,6.5 C 21.5,6.83333 23.5,7.16667 25.5,7.5C 26.0347,9.44563 27.368,10.4456 29.5,10.5C 30.1667,10.5 30.5,10.8333 30.5,11.5C 30.1667,12.8333 29.8333,14.1667 29.5,15.5C 28.0755,17.0311 27.4088,16.6977 27.5,14.5C 26.578,12.1837 24.9113,10.517 22.5,9.5C 21.6935,8.27187 20.6935,7.27187 19.5,6.5 Z"/></g>
<g><path style="opacity:0.941" fill="#f2d800" d="M 5.5,7.5 C 6.23891,7.36899 6.90558,7.53566 7.5,8C 6.74756,8.67076 6.41423,9.5041 6.5,10.5C 5.83333,10.5 5.5,10.8333 5.5,11.5C 4.09368,11.9731 3.42702,12.9731 3.5,14.5C 2.65225,15.625 1.65225,15.625 0.5,14.5C 0.5,14.1667 0.5,13.8333 0.5,13.5C 0.556884,12.391 0.890217,11.391 1.5,10.5C 3.40435,10.2624 4.73769,9.26242 5.5,7.5 Z"/></g>
<g><path style="opacity:1" fill="#bc2c00" d="M 10.5,8.5 C 10.5,9.16667 10.8333,9.5 11.5,9.5C 10.8333,10.8333 9.83333,11.8333 8.5,12.5C 8.16667,12.5 7.83333,12.5 7.5,12.5C 7.15829,11.6618 6.49162,11.3284 5.5,11.5C 5.5,10.8333 5.83333,10.5 6.5,10.5C 7.60486,9.39952 8.93819,8.73286 10.5,8.5 Z"/></g>
<g><path style="opacity:0.188" fill="#626305" d="M -0.5,10.5 C 0.166667,10.5 0.833333,10.5 1.5,10.5C 0.890217,11.391 0.556884,12.391 0.5,13.5C 0.166667,13.5 -0.166667,13.5 -0.5,13.5C -0.5,12.5 -0.5,11.5 -0.5,10.5 Z"/></g>
<g><path style="opacity:1" fill="#ac1900" d="M 5.5,11.5 C 6.49162,11.3284 7.15829,11.6618 7.5,12.5C 7.5,15.1667 7.5,17.8333 7.5,20.5C 7.5,20.8333 7.5,21.1667 7.5,21.5C 5.72998,19.4976 4.39665,17.1643 3.5,14.5C 3.42702,12.9731 4.09368,11.9731 5.5,11.5 Z"/></g>
<g><path style="opacity:1" fill="#f7c800" d="M 11.5,9.5 C 13.1667,9.5 14.8333,9.5 16.5,9.5C 15.8333,10.5 15.1667,11.5 14.5,12.5C 12.5168,12.1568 11.1834,12.8235 10.5,14.5C 9.5,14.1667 8.83333,13.5 8.5,12.5C 9.83333,11.8333 10.8333,10.8333 11.5,9.5 Z"/></g>
<g><path style="opacity:1" fill="#f6db00" d="M 14.5,12.5 C 14.5,13.1667 14.8333,13.5 15.5,13.5C 15.8333,14.1667 16.1667,14.8333 16.5,15.5C 15.8333,15.5 15.1667,15.5 14.5,15.5C 13.2921,14.7659 11.9587,14.4326 10.5,14.5C 11.1834,12.8235 12.5168,12.1568 14.5,12.5 Z"/></g>
<g><path style="opacity:1" fill="#d62c00" d="M 19.5,11.5 C 19.8333,11.5 20.1667,11.5 20.5,11.5C 20.7989,13.604 20.4656,15.604 19.5,17.5C 18.4822,16.8075 17.4822,16.1408 16.5,15.5C 16.1667,14.8333 15.8333,14.1667 15.5,13.5C 16.287,11.8958 17.6203,11.2291 19.5,11.5 Z"/></g>
<g><path style="opacity:1" fill="#a41b00" d="M 21.5,10.5 C 21.5,9.83333 21.8333,9.5 22.5,9.5C 24.9113,10.517 26.578,12.1837 27.5,14.5C 26.6618,14.8417 26.3284,15.5084 26.5,16.5C 25.6873,18.2608 24.6873,19.9275 23.5,21.5C 23.5,20.8333 23.1667,20.5 22.5,20.5C 22.7233,18.6583 23.0566,16.825 23.5,15C 23.4753,13.124 22.8086,11.624 21.5,10.5 Z"/></g>
<g><path style="opacity:0.027" fill="#030600" d="M -0.5,13.5 C -0.166667,13.5 0.166667,13.5 0.5,13.5C 0.5,13.8333 0.5,14.1667 0.5,14.5C 0.32842,15.4916 0.661754,16.1583 1.5,16.5C 1.5,16.8333 1.5,17.1667 1.5,17.5C 0.833333,17.8333 0.166667,18.1667 -0.5,18.5C -0.5,16.8333 -0.5,15.1667 -0.5,13.5 Z"/></g>
<g><path style="opacity:0.251" fill="#555409" d="M 30.5,11.5 C 30.8333,11.5 31.1667,11.5 31.5,11.5C 31.5,12.5 31.5,13.5 31.5,14.5C 30.8333,15.5 30.1667,16.5 29.5,17.5C 29.5,16.8333 29.5,16.1667 29.5,15.5C 29.8333,14.1667 30.1667,12.8333 30.5,11.5 Z"/></g>
<g><path style="opacity:1" fill="#bc1c00" d="M 7.5,12.5 C 7.83333,12.5 8.16667,12.5 8.5,12.5C 8.83333,13.5 9.5,14.1667 10.5,14.5C 11.9587,14.4326 13.2921,14.7659 14.5,15.5C 14.5,15.8333 14.5,16.1667 14.5,16.5C 13.209,16.2627 12.209,16.596 11.5,17.5C 9.81018,17.8564 8.81018,18.8564 8.5,20.5C 8.16667,20.5 7.83333,20.5 7.5,20.5C 7.5,17.8333 7.5,15.1667 7.5,12.5 Z"/></g>
<g><path style="opacity:1" fill="#efb100" d="M 21.5,10.5 C 22.8086,11.624 23.4753,13.124 23.5,15C 23.0566,16.825 22.7233,18.6583 22.5,20.5C 22.1667,20.5 21.8333,20.5 21.5,20.5C 20.8166,18.8235 19.4832,18.1568 17.5,18.5C 16.5,17.8333 15.5,17.1667 14.5,16.5C 14.5,16.1667 14.5,15.8333 14.5,15.5C 15.1667,15.5 15.8333,15.5 16.5,15.5C 17.4822,16.1408 18.4822,16.8075 19.5,17.5C 20.4656,15.604 20.7989,13.604 20.5,11.5C 20.5,10.8333 20.8333,10.5 21.5,10.5 Z"/></g>
<g><path style="opacity:0.986" fill="#d8b100" d="M 27.5,14.5 C 27.4088,16.6977 28.0755,17.0311 29.5,15.5C 29.5,16.1667 29.5,16.8333 29.5,17.5C 29.5,18.1667 29.5,18.8333 29.5,19.5C 28.8333,19.5 28.1667,19.5 27.5,19.5C 26.8902,18.609 26.5569,17.609 26.5,16.5C 26.3284,15.5084 26.6618,14.8417 27.5,14.5 Z"/></g>
<g><path style="opacity:1" fill="#e6b100" d="M 0.5,14.5 C 1.65225,15.625 2.65225,15.625 3.5,14.5C 4.39665,17.1643 5.72998,19.4976 7.5,21.5C 6.79105,22.404 5.79105,22.7373 4.5,22.5C 3.48615,20.4261 2.48615,18.4261 1.5,16.5C 0.661754,16.1583 0.32842,15.4916 0.5,14.5 Z"/></g>
<g><path style="opacity:1" fill="#d12500" d="M 11.5,17.5 C 12.209,16.596 13.209,16.2627 14.5,16.5C 15.5,17.1667 16.5,17.8333 17.5,18.5C 16.4324,19.4345 15.099,19.7678 13.5,19.5C 13.1667,18.5 12.5,17.8333 11.5,17.5 Z"/></g>
<g><path style="opacity:1" fill="#edb000" d="M 11.5,17.5 C 12.5,17.8333 13.1667,18.5 13.5,19.5C 9.5,19.8333 9.5,20.1667 13.5,20.5C 13.5,20.8333 13.5,21.1667 13.5,21.5C 12.1667,21.5 10.8333,21.5 9.5,21.5C 9.5,20.8333 9.16667,20.5 8.5,20.5C 8.81018,18.8564 9.81018,17.8564 11.5,17.5 Z"/></g>
<g><path style="opacity:1" fill="#fbc500" d="M 17.5,18.5 C 19.4832,18.1568 20.8166,18.8235 21.5,20.5C 18.8333,20.5 16.1667,20.5 13.5,20.5C 9.5,20.1667 9.5,19.8333 13.5,19.5C 15.099,19.7678 16.4324,19.4345 17.5,18.5 Z"/></g>
<g><path style="opacity:0.986" fill="#eea500" d="M 26.5,16.5 C 26.5569,17.609 26.8902,18.609 27.5,19.5C 27.4431,20.609 27.1098,21.609 26.5,22.5C 25.209,22.7373 24.209,22.404 23.5,21.5C 24.6873,19.9275 25.6873,18.2608 26.5,16.5 Z"/></g>
<g><path style="opacity:1" fill="#e9bd00" d="M 13.5,20.5 C 16.1667,20.5 18.8333,20.5 21.5,20.5C 21.8333,20.5 22.1667,20.5 22.5,20.5C 23.1667,20.5 23.5,20.8333 23.5,21.5C 22.5084,21.3284 21.8417,21.6618 21.5,22.5C 20.1667,21.1667 18.8333,21.1667 17.5,22.5C 16.1667,22.5 14.8333,22.5 13.5,22.5C 13.5,22.1667 13.5,21.8333 13.5,21.5C 13.5,21.1667 13.5,20.8333 13.5,20.5 Z"/></g>
<g><path style="opacity:1" fill="#8a0e00" d="M 9.5,21.5 C 10.8333,21.5 12.1667,21.5 13.5,21.5C 13.5,21.8333 13.5,22.1667 13.5,22.5C 12.209,22.2627 11.209,22.596 10.5,23.5C 10.5,24.5 10.5,25.5 10.5,26.5C 9.5,26.5 8.5,26.5 7.5,26.5C 7.5,26.1667 7.5,25.8333 7.5,25.5C 7.73286,23.9382 8.39952,22.6049 9.5,21.5 Z"/></g>
<g><path style="opacity:1" fill="#eabe00" d="M 7.5,20.5 C 7.83333,20.5 8.16667,20.5 8.5,20.5C 9.16667,20.5 9.5,20.8333 9.5,21.5C 8.39952,22.6049 7.73286,23.9382 7.5,25.5C 6.83333,25.1667 6.16667,24.8333 5.5,24.5C 5.16667,23.8333 4.83333,23.1667 4.5,22.5C 5.79105,22.7373 6.79105,22.404 7.5,21.5C 7.5,21.1667 7.5,20.8333 7.5,20.5 Z"/></g>
<g><path style="opacity:1" fill="#950000" d="M 10.5,23.5 C 11.209,22.596 12.209,22.2627 13.5,22.5C 14.8333,22.5 16.1667,22.5 17.5,22.5C 18.5,23.1667 19.5,23.8333 20.5,24.5C 17.1667,24.1667 13.8333,23.8333 10.5,23.5 Z"/></g>
<g><path style="opacity:0.471" fill="#716a0c" d="M 27.5,19.5 C 28.1667,19.5 28.8333,19.5 29.5,19.5C 28.6772,21.9872 27.6772,24.3206 26.5,26.5C 26.5,25.5 26.5,24.5 26.5,23.5C 26.5,23.1667 26.5,22.8333 26.5,22.5C 27.1098,21.609 27.4431,20.609 27.5,19.5 Z"/></g>
<g><path style="opacity:1" fill="#a33a01" d="M 21.5,22.5 C 22.5511,23.2223 23.2178,24.2223 23.5,25.5C 23.1667,26.1667 22.8333,26.8333 22.5,27.5C 17.3054,27.8205 12.3054,27.4872 7.5,26.5C 8.5,26.5 9.5,26.5 10.5,26.5C 14.3293,27.069 17.6627,26.4023 20.5,24.5C 19.5,23.8333 18.5,23.1667 17.5,22.5C 18.8333,21.1667 20.1667,21.1667 21.5,22.5 Z"/></g>
<g><path style="opacity:0.816" fill="#968b07" d="M 1.5,16.5 C 2.48615,18.4261 3.48615,20.4261 4.5,22.5C 4.83333,23.1667 5.16667,23.8333 5.5,24.5C 5.5,26.1667 5.5,27.8333 5.5,29.5C 3.56829,25.8047 2.23495,21.8047 1.5,17.5C 1.5,17.1667 1.5,16.8333 1.5,16.5 Z"/></g>
<g><path style="opacity:1" fill="#9f0000" d="M 10.5,23.5 C 13.8333,23.8333 17.1667,24.1667 20.5,24.5C 17.6627,26.4023 14.3293,27.069 10.5,26.5C 10.5,25.5 10.5,24.5 10.5,23.5 Z"/></g>
<g><path style="opacity:1" fill="#f4d100" d="M 23.5,21.5 C 24.209,22.404 25.209,22.7373 26.5,22.5C 26.5,22.8333 26.5,23.1667 26.5,23.5C 25.7777,24.5511 24.7777,25.2178 23.5,25.5C 23.2178,24.2223 22.5511,23.2223 21.5,22.5C 21.8417,21.6618 22.5084,21.3284 23.5,21.5 Z"/></g>
<g><path style="opacity:1" fill="#b0a705" d="M 26.5,23.5 C 26.5,24.5 26.5,25.5 26.5,26.5C 26.67,27.8221 26.3366,28.9887 25.5,30C 18.6536,30.8206 11.987,30.654 5.5,29.5C 11.8682,29.8297 18.2015,29.4963 24.5,28.5C 24.0431,27.7025 23.3764,27.3691 22.5,27.5C 22.8333,26.8333 23.1667,26.1667 23.5,25.5C 24.7777,25.2178 25.7777,24.5511 26.5,23.5 Z"/></g>
<g><path style="opacity:1" fill="#f8ed00" d="M 5.5,24.5 C 6.16667,24.8333 6.83333,25.1667 7.5,25.5C 7.5,25.8333 7.5,26.1667 7.5,26.5C 12.3054,27.4872 17.3054,27.8205 22.5,27.5C 23.3764,27.3691 24.0431,27.7025 24.5,28.5C 18.2015,29.4963 11.8682,29.8297 5.5,29.5C 5.5,27.8333 5.5,26.1667 5.5,24.5 Z"/></g>
</svg>
